<svg width="48" height="48" viewBox="0 0 48 48" fill="none" xmlns="http://www.w3.org/2000/svg">
<rect width="48" height="48" rx="12" fill="#856BFA"/>
<path d="M31.267 38.3334C29.7603 38.3334 28.1737 37.9734 26.5337 37.2801C24.9337 36.6001 23.3203 35.6667 21.747 34.5334C20.187 33.3867 18.6803 32.1068 17.2537 30.7067C15.8403 29.2801 14.5603 27.7734 13.427 26.2267C12.2803 24.6267 11.3603 23.0267 10.707 21.4801C10.0137 19.8267 9.66699 18.2267 9.66699 16.7201C9.66699 15.6801 9.85366 14.6934 10.2137 13.7734C10.587 12.8267 11.187 11.9467 12.0003 11.1867C13.027 10.1734 14.2003 9.66675 15.4537 9.66675C15.9737 9.66675 16.507 9.78675 16.9603 10.0001C17.4803 10.2401 17.9203 10.6001 18.2403 11.0801L21.3337 15.4401C21.6137 15.8267 21.827 16.2001 21.9737 16.5734C22.147 16.9734 22.2403 17.3734 22.2403 17.7601C22.2403 18.2667 22.0937 18.7601 21.8137 19.2267C21.6137 19.5867 21.307 19.9734 20.9203 20.3601L20.0137 21.3067C20.027 21.3467 20.0403 21.3734 20.0537 21.4001C20.2137 21.6801 20.5337 22.1601 21.147 22.8801C21.8003 23.6267 22.4137 24.3067 23.027 24.9334C23.8137 25.7067 24.467 26.3201 25.0803 26.8267C25.8403 27.4667 26.3337 27.7867 26.627 27.9334L26.6003 28.0001L27.5737 27.0401C27.987 26.6267 28.387 26.3201 28.7737 26.1201C29.507 25.6667 30.4403 25.5867 31.3737 25.9734C31.7203 26.1201 32.0937 26.3201 32.4937 26.6001L36.9203 29.7467C37.4137 30.0801 37.7737 30.5067 37.987 31.0134C38.187 31.5201 38.2803 31.9867 38.2803 32.4534C38.2803 33.0934 38.1337 33.7334 37.8537 34.3334C37.5737 34.9334 37.227 35.4534 36.787 35.9334C36.027 36.7734 35.2003 37.3734 34.2403 37.7601C33.3203 38.1334 32.3203 38.3334 31.267 38.3334ZM15.4537 11.6667C14.7203 11.6667 14.0403 11.9867 13.387 12.6267C12.7737 13.2001 12.347 13.8267 12.0803 14.5067C11.8003 15.2001 11.667 15.9334 11.667 16.7201C11.667 17.9601 11.9603 19.3067 12.547 20.6934C13.147 22.1067 13.987 23.5734 15.0537 25.0401C16.1203 26.5067 17.3337 27.9334 18.667 29.2801C20.0003 30.6001 21.4403 31.8267 22.9203 32.9067C24.3603 33.9601 25.8403 34.8134 27.307 35.4267C29.587 36.4001 31.7203 36.6267 33.4803 35.8934C34.1603 35.6134 34.7603 35.1867 35.307 34.5734C35.6137 34.2401 35.8537 33.8801 36.0537 33.4534C36.2137 33.1201 36.2937 32.7734 36.2937 32.4267C36.2937 32.2134 36.2537 32.0001 36.147 31.7601C36.107 31.6801 36.027 31.5334 35.7737 31.3601L31.347 28.2134C31.0803 28.0267 30.8403 27.8934 30.6137 27.8001C30.3203 27.6801 30.2003 27.5601 29.747 27.8401C29.4803 27.9734 29.2403 28.1734 28.9737 28.4401L27.9603 29.4401C27.4403 29.9467 26.6403 30.0667 26.027 29.8401L25.667 29.6801C25.1203 29.3867 24.4803 28.9334 23.7737 28.3334C23.1337 27.7867 22.4403 27.1467 21.6003 26.3201C20.947 25.6534 20.2937 24.9467 19.6137 24.1601C18.987 23.4267 18.5337 22.8001 18.2537 22.2801L18.0937 21.8801C18.0137 21.5734 17.987 21.4001 17.987 21.2134C17.987 20.7334 18.1603 20.3067 18.4937 19.9734L19.4937 18.9334C19.7603 18.6667 19.9603 18.4134 20.0937 18.1867C20.2003 18.0134 20.2403 17.8667 20.2403 17.7334C20.2403 17.6267 20.2003 17.4667 20.1337 17.3067C20.0403 17.0934 19.8937 16.8534 19.707 16.6001L16.6137 12.2267C16.4803 12.0401 16.3203 11.9067 16.1203 11.8134C15.907 11.7201 15.6803 11.6667 15.4537 11.6667ZM26.6003 28.0134L26.387 28.9201L26.747 27.9867C26.6803 27.9734 26.627 27.9867 26.6003 28.0134Z" fill="white"/>
<path d="M32.6667 20.9999C32.12 20.9999 31.6667 20.5466 31.6667 19.9999C31.6667 19.5199 31.1867 18.5199 30.3867 17.6666C29.6 16.8266 28.7333 16.3333 28 16.3333C27.4533 16.3333 27 15.8799 27 15.3333C27 14.7866 27.4533 14.3333 28 14.3333C29.2933 14.3333 30.6533 15.0266 31.84 16.2933C32.9467 17.4799 33.6667 18.9333 33.6667 19.9999C33.6667 20.5466 33.2133 20.9999 32.6667 20.9999Z" fill="white"/>
<path d="M37.3333 21.0001C36.7867 21.0001 36.3333 20.5467 36.3333 20.0001C36.3333 15.4001 32.6 11.6667 28 11.6667C27.4533 11.6667 27 11.2134 27 10.6667C27 10.1201 27.4533 9.66675 28 9.66675C33.6933 9.66675 38.3333 14.3067 38.3333 20.0001C38.3333 20.5467 37.88 21.0001 37.3333 21.0001Z" fill="white"/>
</svg>
