<svg width="48" height="48" viewBox="0 0 48 48" fill="none" xmlns="http://www.w3.org/2000/svg">
<rect width="48" height="48" rx="12" fill="#856BFA"/>
<path d="M21.3203 38.3733C20.5203 38.3733 19.7603 37.9733 19.2403 37.2667L17.6403 35.1333C17.6403 35.1467 17.5737 35.1066 17.547 35.1066H17.0537C12.4937 35.1066 9.66699 33.8667 9.66699 27.72V22.3867C9.66699 16.7733 13.0937 15.3067 15.9737 15.0533C16.2937 15.0133 16.667 15 17.0537 15H25.587C30.4137 15 32.9737 17.56 32.9737 22.3867V27.72C32.9737 28.1067 32.9603 28.48 32.907 28.84C32.667 31.68 31.2003 35.1066 25.587 35.1066H25.0537L23.4003 37.2667C22.8803 37.9733 22.1203 38.3733 21.3203 38.3733ZM17.0537 17C16.747 17 16.4537 17.0133 16.1737 17.04C13.0803 17.3067 11.667 19 11.667 22.3867V27.72C11.667 32.2933 13.0803 33.1066 17.0537 33.1066H17.587C18.187 33.1066 18.867 33.44 19.2403 33.92L20.8403 36.0666C21.1337 36.4667 21.507 36.4667 21.8003 36.0666L23.4003 33.9333C23.787 33.4133 24.4003 33.1066 25.0537 33.1066H25.587C28.9737 33.1066 30.667 31.68 30.9203 28.64C30.9603 28.32 30.9737 28.0267 30.9737 27.72V22.3867C30.9737 18.6667 29.307 17 25.587 17H17.0537Z" fill="white"/>
<path d="M21.3206 26.9201C20.574 26.9201 19.9873 26.3201 19.9873 25.5868C19.9873 24.8534 20.5873 24.2534 21.3206 24.2534C22.054 24.2534 22.654 24.8534 22.654 25.5868C22.654 26.3201 22.0673 26.9201 21.3206 26.9201Z" fill="white"/>
<path d="M25.5863 26.9201C24.8396 26.9201 24.2529 26.3201 24.2529 25.5868C24.2529 24.8534 24.8529 24.2534 25.5863 24.2534C26.3196 24.2534 26.9196 24.8534 26.9196 25.5868C26.9196 26.3201 26.3196 26.9201 25.5863 26.9201Z" fill="white"/>
<path d="M17.0667 26.9201C16.3201 26.9201 15.7334 26.3201 15.7334 25.5868C15.7334 24.8534 16.3334 24.2534 17.0667 24.2534C17.8001 24.2534 18.4001 24.8534 18.4001 25.5868C18.4001 26.3201 17.8001 26.9201 17.0667 26.9201Z" fill="white"/>
<path d="M31.9205 29.7201C31.6538 29.7201 31.3872 29.6134 31.2005 29.4134C30.9872 29.2001 30.8939 28.8934 30.9339 28.6001C30.9739 28.3201 30.9872 28.0268 30.9872 27.7201V22.3868C30.9872 18.6668 29.3205 17.0001 25.6005 17.0001H17.0672C16.7605 17.0001 16.4672 17.0134 16.1872 17.0401C15.8939 17.0801 15.5872 16.9734 15.3738 16.7734C15.1605 16.5601 15.0405 16.2668 15.0672 15.9734C15.3072 13.0934 16.7872 9.66675 22.4005 9.66675H30.9339C35.7605 9.66675 38.3205 12.2268 38.3205 17.0534V22.3868C38.3205 28.0001 34.8939 29.4668 32.0139 29.7201C31.9739 29.7201 31.9472 29.7201 31.9205 29.7201ZM17.2272 15.0001H25.5872C30.4138 15.0001 32.9739 17.5601 32.9739 22.3868V27.5468C35.2405 26.9868 36.3072 25.3201 36.3072 22.3868V17.0534C36.3072 13.3334 34.6405 11.6667 30.9205 11.6667H22.3872C19.4538 11.6667 17.8005 12.7334 17.2272 15.0001Z" fill="white"/>
</svg>
