<svg width="32" height="32" viewBox="0 0 32 32" fill="none" xmlns="http://www.w3.org/2000/svg">
<path d="M16.0003 29.3332C8.63633 29.3332 2.66699 23.3638 2.66699 15.9998C2.66699 8.63584 8.63633 2.6665 16.0003 2.6665C23.3643 2.6665 29.3337 8.63584 29.3337 15.9998C29.3337 23.3638 23.3643 29.3332 16.0003 29.3332ZM12.947 26.2225C11.6315 23.4323 10.8695 20.4135 10.703 17.3332H5.41633C5.67577 19.385 6.52555 21.3174 7.86242 22.8954C9.19928 24.4735 10.9657 25.6293 12.947 26.2225ZM13.3737 17.3332C13.575 20.5852 14.5043 23.6398 16.0003 26.3358C17.5368 23.5686 18.4343 20.4925 18.627 17.3332H13.3737ZM26.5843 17.3332H21.2977C21.1312 20.4135 20.3691 23.4323 19.0537 26.2225C21.035 25.6293 22.8014 24.4735 24.1382 22.8954C25.4751 21.3174 26.3249 19.385 26.5843 17.3332ZM5.41633 14.6665H10.703C10.8695 11.5862 11.6315 8.56742 12.947 5.77717C10.9657 6.37034 9.19928 7.52617 7.86242 9.10423C6.52555 10.6823 5.67577 12.6146 5.41633 14.6665ZM13.375 14.6665H18.6257C18.4333 11.5073 17.5363 8.43121 16.0003 5.66384C14.4639 8.4311 13.5664 11.5072 13.3737 14.6665H13.375ZM19.0537 5.77717C20.3691 8.56742 21.1312 11.5862 21.2977 14.6665H26.5843C26.3249 12.6146 25.4751 10.6823 24.1382 9.10423C22.8014 7.52617 21.035 6.37034 19.0537 5.77717Z" fill="white"/>
</svg>
