<svg width="48" height="48" viewBox="0 0 48 48" fill="none" xmlns="http://www.w3.org/2000/svg">
<rect width="48" height="48" rx="12" fill="#856BFA"/>
<path d="M31.5471 38.2267C30.8405 38.2267 29.9338 38 28.8005 37.3333L24.8138 34.9733C24.4005 34.7333 23.6005 34.7333 23.2005 34.9733L19.2005 37.3333C16.8405 38.7333 15.4538 38.1733 14.8271 37.72C14.2138 37.2667 13.2538 36.1067 13.8805 33.44L14.8271 29.3467C14.9338 28.92 14.7205 28.1867 14.4005 27.8667L11.0938 24.56C9.44048 22.9067 9.57382 21.4933 9.80048 20.8C10.0271 20.1067 10.7471 18.88 13.0405 18.4933L17.2938 17.7867C17.6938 17.72 18.2671 17.2933 18.4405 16.9333L20.8005 12.2267C21.8671 10.08 23.2671 9.76001 24.0005 9.76001C24.7338 9.76001 26.1338 10.08 27.2005 12.2267L29.5471 16.92C29.7338 17.28 30.3071 17.7067 30.7071 17.7733L34.9605 18.48C37.2671 18.8667 37.9871 20.0933 38.2005 20.7867C38.4138 21.48 38.5471 22.8933 36.9071 24.5467L33.6005 27.8667C33.2805 28.1867 33.0805 28.9067 33.1738 29.3467L34.1205 33.44C34.7338 36.1067 33.7871 37.2667 33.1738 37.72C32.8405 37.96 32.3071 38.2267 31.5471 38.2267ZM24.0005 32.7867C24.6538 32.7867 25.3071 32.9467 25.8271 33.2533L29.8138 35.6133C30.9738 36.3067 31.7071 36.3067 31.9871 36.1067C32.2671 35.9067 32.4671 35.2 32.1738 33.8933L31.2271 29.8C30.9738 28.6933 31.3871 27.2667 32.1871 26.4533L35.4938 23.1467C36.1472 22.4933 36.4405 21.8533 36.3071 21.4133C36.1605 20.9733 35.5471 20.6133 34.6405 20.4667L30.3871 19.76C29.3605 19.5867 28.2405 18.76 27.7738 17.8267L25.4271 13.1333C25.0005 12.28 24.4671 11.7733 24.0005 11.7733C23.5338 11.7733 23.0005 12.28 22.5871 13.1333L20.2271 17.8267C19.7605 18.76 18.6405 19.5867 17.6138 19.76L13.3738 20.4667C12.4671 20.6133 11.8538 20.9733 11.7071 21.4133C11.5605 21.8533 11.8671 22.5067 12.5205 23.1467L15.8271 26.4533C16.6271 27.2533 17.0405 28.6933 16.7871 29.8L15.8405 33.8933C15.5338 35.2133 15.7471 35.9067 16.0271 36.1067C16.3071 36.3067 17.0271 36.2933 18.2005 35.6133L22.1872 33.2533C22.6938 32.9467 23.3471 32.7867 24.0005 32.7867Z" fill="white"/>
</svg>
