<svg width="48" height="48" viewBox="0 0 48 48" fill="none" xmlns="http://www.w3.org/2000/svg">
<rect width="48" height="48" rx="12" fill="#856BFA"/>
<path d="M32.3869 38.3334H15.6136C11.0803 38.3334 10.8403 35.8401 10.6403 33.8268L10.1069 27.1467C9.98693 25.8534 10.3603 24.5601 11.1869 23.5201C12.1736 22.3201 13.5736 21.6667 15.0803 21.6667H32.9203C34.4003 21.6667 35.8003 22.3201 36.7469 23.4534L36.9736 23.7601C37.6936 24.7467 38.0136 25.9467 37.8936 27.1601L37.3603 33.8134C37.1603 35.8401 36.9203 38.3334 32.3869 38.3334ZM15.0803 23.6667C14.1869 23.6667 13.3336 24.0667 12.7736 24.7601L12.6803 24.8534C12.2536 25.4001 12.0269 26.1734 12.1069 26.9734L12.6403 33.6534C12.8269 35.6001 12.9069 36.3334 15.6136 36.3334H32.3869C35.1069 36.3334 35.1736 35.6001 35.3603 33.6401L35.8936 26.9601C35.9736 26.1734 35.7469 25.3867 35.2269 24.7734L35.0936 24.6134C34.4936 23.9867 33.7336 23.6667 32.9069 23.6667H15.0803Z" fill="white"/>
<path d="M35.3337 24.2935C34.787 24.2935 34.3337 23.8401 34.3337 23.2935V20.9068C34.3337 16.9335 33.6403 16.2401 29.667 16.2401H26.267C24.7603 16.2401 24.2403 15.7068 23.667 14.9468L21.947 12.6668C21.3603 11.8935 21.227 11.7068 20.027 11.7068H18.3337C14.3603 11.7068 13.667 12.4001 13.667 16.3735V23.2401C13.667 23.7868 13.2137 24.2401 12.667 24.2401C12.1203 24.2401 11.667 23.7868 11.667 23.2401V16.3735C11.667 11.2668 13.227 9.70679 18.3337 9.70679H20.0403C22.0937 9.70679 22.7337 10.3735 23.5603 11.4668L25.267 13.7335C25.627 14.2135 25.6537 14.2401 26.2803 14.2401H29.6803C34.787 14.2401 36.347 15.8001 36.347 20.9068V23.2935C36.3337 23.8401 35.8803 24.2935 35.3337 24.2935Z" fill="white"/>
<path d="M27.4266 31.6667H20.5732C20.0266 31.6667 19.5732 31.2134 19.5732 30.6667C19.5732 30.1201 20.0266 29.6667 20.5732 29.6667H27.4266C27.9732 29.6667 28.4266 30.1201 28.4266 30.6667C28.4266 31.2134 27.9866 31.6667 27.4266 31.6667Z" fill="white"/>
</svg>
