<svg width="288" height="288" viewBox="0 0 288 288" fill="none" xmlns="http://www.w3.org/2000/svg">
<g opacity="0.4" filter="url(#filter0_f_1_1920)">
<rect x="100" y="100" width="88" height="88" rx="12" fill="#6247DB"/>
</g>
<rect x="84" y="84" width="120" height="120" rx="32" fill="white"/>
<rect opacity="0.45" x="89.5" y="89.5" width="109" height="109" rx="27.5" fill="#F2E6FF" stroke="#C1B5F7" stroke-dasharray="5 5"/>
<g opacity="0.4">
<path d="M179 172.333C175.326 172.333 172.333 175.327 172.333 179C172.333 182.673 175.326 185.667 179 185.667C182.673 185.667 185.666 182.673 185.666 179C185.666 175.327 182.673 172.333 179 172.333ZM181.666 179.5H179.5V181.667C179.5 181.94 179.273 182.167 179 182.167C178.726 182.167 178.5 181.94 178.5 181.667V179.5H176.333C176.06 179.5 175.833 179.273 175.833 179C175.833 178.727 176.06 178.5 176.333 178.5H178.5V176.333C178.5 176.06 178.726 175.833 179 175.833C179.273 175.833 179.5 176.06 179.5 176.333V178.5H181.666C181.94 178.5 182.166 178.727 182.166 179C182.166 179.273 181.94 179.5 181.666 179.5Z" fill="#856BFA"/>
</g>
<path d="M162.12 143.64L161.8 143.2C161.24 142.52 160.58 141.98 159.82 141.58C158.8 141 157.64 140.7 156.44 140.7H131.54C130.34 140.7 129.2 141 128.16 141.58C127.38 142 126.68 142.58 126.1 143.3C124.96 144.76 124.42 146.56 124.6 148.36L125.34 157.7C125.6 160.52 125.94 164 132.28 164H155.72C162.06 164 162.38 160.52 162.66 157.68L163.4 148.38C163.58 146.7 163.14 145.02 162.12 143.64ZM148.78 154.68H139.2C138.42 154.68 137.8 154.04 137.8 153.28C137.8 152.52 138.42 151.88 139.2 151.88H148.78C149.56 151.88 150.18 152.52 150.18 153.28C150.18 154.06 149.56 154.68 148.78 154.68Z" fill="#6247DB"/>
<path d="M126.76 142.62C127.2 142.22 127.64 141.86 128.16 141.58C129.18 141 130.34 140.7 131.54 140.7H156.46C157.66 140.7 158.8 141 159.84 141.58C160.36 141.86 160.82 142.22 161.24 142.64V141.58V139.64C161.24 132.5 159.06 130.32 151.92 130.32H147.16C146.28 130.32 146.26 130.3 145.74 129.62L143.34 126.4C142.2 124.92 141.3 124 138.44 124H136.08C128.94 124 126.76 126.18 126.76 133.32V141.6V142.62Z" fill="#AAC7FF"/>
<defs>
<filter id="filter0_f_1_1920" x="0" y="0" width="288" height="288" filterUnits="userSpaceOnUse" color-interpolation-filters="sRGB">
<feFlood flood-opacity="0" result="BackgroundImageFix"/>
<feBlend mode="normal" in="SourceGraphic" in2="BackgroundImageFix" result="shape"/>
<feGaussianBlur stdDeviation="50" result="effect1_foregroundBlur_1_1920"/>
</filter>
</defs>
</svg>
