<svg width="96" height="96" viewBox="0 0 96 96" fill="none" xmlns="http://www.w3.org/2000/svg">
<rect width="96" height="96" rx="16" fill="#EFEBFE"/>
<path d="M55.9207 66.6399C55.5407 66.6399 55.1607 66.4999 54.8607 66.1999L51.8207 63.1599C51.2407 62.5799 51.2407 61.6199 51.8207 61.0399C52.4007 60.4599 53.3607 60.4599 53.9407 61.0399L55.9207 63.0199L60.9407 57.9999C61.5207 57.4199 62.4807 57.4199 63.0607 57.9999C63.6407 58.5799 63.6407 59.5399 63.0607 60.1199L56.9807 66.1999C56.6807 66.4999 56.3007 66.6399 55.9207 66.6399Z" fill="#856BFA"/>
<path d="M48.3204 47.24C48.2604 47.24 48.2204 47.24 48.1604 47.24C48.0604 47.22 47.9204 47.22 47.8004 47.24C42.0004 47.06 37.6204 42.5 37.6204 36.88C37.6004 34.12 38.6804 31.52 40.6404 29.56C42.6004 27.6 45.2004 26.5 47.9804 26.5C53.7004 26.5 58.3604 31.16 58.3604 36.88C58.3604 42.5 53.9804 47.04 48.3804 47.24C48.3604 47.24 48.3404 47.24 48.3204 47.24ZM47.9804 29.5C46.0004 29.5 44.1604 30.28 42.7604 31.66C41.3804 33.06 40.6204 34.9 40.6204 36.86C40.6204 40.86 43.7404 44.1 47.7204 44.22C47.8404 44.2 48.1004 44.2 48.3604 44.22C52.3004 44.04 55.3604 40.82 55.3604 36.86C55.3604 32.82 52.0404 29.5 47.9804 29.5Z" fill="#856BFA"/>
<path d="M47.9803 69.12C43.9003 69.12 40.0403 68.06 37.1203 66.1C34.3403 64.24 32.8203 61.7 32.8203 58.96C32.8203 56.22 34.3603 53.7 37.1203 51.86C43.1003 47.86 52.8203 47.86 58.8003 51.86C59.4803 52.32 59.6803 53.26 59.2203 53.94C58.7603 54.64 57.8203 54.82 57.1403 54.36C52.1603 51.04 43.7603 51.04 38.7803 54.36C36.8603 55.64 35.8203 57.26 35.8203 58.96C35.8203 60.66 36.8603 62.32 38.7803 63.6C41.2003 65.22 44.4603 66.1 47.9603 66.1C48.7803 66.1 49.4603 66.78 49.4603 67.6C49.4603 68.42 48.8003 69.12 47.9803 69.12Z" fill="#856BFA"/>
</svg>
