<svg width="288" height="288" viewBox="0 0 288 288" fill="none" xmlns="http://www.w3.org/2000/svg">
<g opacity="0.4" filter="url(#filter0_f_1_1938)">
<rect x="100" y="100" width="88" height="88" rx="12" fill="#6247DB"/>
</g>
<rect x="84" y="84" width="120" height="120" rx="32" fill="white"/>
<rect opacity="0.45" x="89.5" y="89.5" width="109" height="109" rx="27.5" fill="#F2E6FF" stroke="#C1B5F7" stroke-dasharray="5 5"/>
<g opacity="0.4">
<path d="M179 172.333C175.326 172.333 172.333 175.327 172.333 179C172.333 182.673 175.326 185.667 179 185.667C182.673 185.667 185.666 182.673 185.666 179C185.666 175.327 182.673 172.333 179 172.333ZM181.666 179.5H179.5V181.667C179.5 181.94 179.273 182.167 179 182.167C178.726 182.167 178.5 181.94 178.5 181.667V179.5H176.333C176.06 179.5 175.833 179.273 175.833 179C175.833 178.727 176.06 178.5 176.333 178.5H178.5V176.333C178.5 176.06 178.726 175.833 179 175.833C179.273 175.833 179.5 176.06 179.5 176.333V178.5H181.666C181.94 178.5 182.166 178.727 182.166 179C182.166 179.273 181.94 179.5 181.666 179.5Z" fill="#856BFA"/>
</g>
<path d="M152.38 124.061H135.62C128.34 124.061 124 128.401 124 135.681V152.441C124 159.721 128.34 164.061 135.62 164.061H152.38C159.66 164.061 164 159.721 164 152.441V135.681C164 128.401 159.66 124.061 152.38 124.061Z" fill="#6247DB"/>
<path d="M156.62 137.801C156.62 138.621 155.96 139.301 155.12 139.301H144.62C143.8 139.301 143.12 138.621 143.12 137.801C143.12 136.981 143.8 136.301 144.62 136.301H155.12C155.96 136.301 156.62 136.981 156.62 137.801Z" fill="#AAC7FF"/>
<path d="M139.94 135.861L135.44 140.361C135.14 140.661 134.76 140.801 134.38 140.801C134 140.801 133.6 140.661 133.32 140.361L131.82 138.861C131.22 138.281 131.22 137.321 131.82 136.741C132.4 136.161 133.34 136.161 133.94 136.741L134.38 137.181L137.82 133.741C138.4 133.161 139.34 133.161 139.94 133.741C140.52 134.321 140.52 135.281 139.94 135.861Z" fill="#AAC7FF"/>
<path d="M156.62 151.801C156.62 152.621 155.96 153.301 155.12 153.301H144.62C143.8 153.301 143.12 152.621 143.12 151.801C143.12 150.981 143.8 150.301 144.62 150.301H155.12C155.96 150.301 156.62 150.981 156.62 151.801Z" fill="#AAC7FF"/>
<path d="M139.94 149.861L135.44 154.361C135.14 154.661 134.76 154.801 134.38 154.801C134 154.801 133.6 154.661 133.32 154.361L131.82 152.861C131.22 152.281 131.22 151.321 131.82 150.741C132.4 150.161 133.34 150.161 133.94 150.741L134.38 151.181L137.82 147.741C138.4 147.161 139.34 147.161 139.94 147.741C140.52 148.321 140.52 149.281 139.94 149.861Z" fill="#AAC7FF"/>
<defs>
<filter id="filter0_f_1_1938" x="0" y="0" width="288" height="288" filterUnits="userSpaceOnUse" color-interpolation-filters="sRGB">
<feFlood flood-opacity="0" result="BackgroundImageFix"/>
<feBlend mode="normal" in="SourceGraphic" in2="BackgroundImageFix" result="shape"/>
<feGaussianBlur stdDeviation="50" result="effect1_foregroundBlur_1_1938"/>
</filter>
</defs>
</svg>
