<svg width="96" height="96" viewBox="0 0 96 96" fill="none" xmlns="http://www.w3.org/2000/svg">
<rect width="96" height="96" rx="16" fill="#EFEBFE"/>
<path d="M49.76 65.72H37.62C30.52 65.72 28 60.74 28 56.1V39.9C28 32.98 30.7 30.28 37.62 30.28H49.76C56.68 30.28 59.38 32.98 59.38 39.9V56.1C59.38 63.02 56.68 65.72 49.76 65.72ZM37.62 33.32C32.4 33.32 31.04 34.68 31.04 39.9V56.1C31.04 58.56 31.9 62.68 37.62 62.68H49.76C54.98 62.68 56.34 61.32 56.34 56.1V39.9C56.34 34.68 54.98 33.32 49.76 33.32H37.62Z" fill="#856BFA"/>
<path d="M65.5594 60.22C64.6994 60.22 63.5994 59.94 62.3394 59.06L56.9994 55.32C56.5994 55.04 56.3594 54.58 56.3594 54.08V41.92C56.3594 41.42 56.5994 40.96 56.9994 40.68L62.3394 36.94C64.7194 35.28 66.4594 35.76 67.2794 36.18C68.0994 36.62 69.4994 37.76 69.4994 40.66V55.32C69.4994 58.22 68.0994 59.38 67.2794 59.8C66.8994 60.02 66.2994 60.22 65.5594 60.22ZM59.3794 53.28L64.0794 56.56C64.9794 57.18 65.6194 57.24 65.8794 57.1C66.1594 56.96 66.4594 56.4 66.4594 55.32V40.68C66.4594 39.58 66.1394 39.04 65.8794 38.9C65.6194 38.76 64.9794 38.82 64.0794 39.44L59.3794 42.72V53.28Z" fill="#856BFA"/>
<path d="M47 47.5C44.52 47.5 42.5 45.48 42.5 43C42.5 40.52 44.52 38.5 47 38.5C49.48 38.5 51.5 40.52 51.5 43C51.5 45.48 49.48 47.5 47 47.5ZM47 41.5C46.18 41.5 45.5 42.18 45.5 43C45.5 43.82 46.18 44.5 47 44.5C47.82 44.5 48.5 43.82 48.5 43C48.5 42.18 47.82 41.5 47 41.5Z" fill="#856BFA"/>
</svg>
