<svg width="288" height="288" viewBox="0 0 288 288" fill="none" xmlns="http://www.w3.org/2000/svg">
<g opacity="0.4" filter="url(#filter0_f_1_1908)">
<rect x="100" y="100" width="88" height="88" rx="12" fill="#6247DB"/>
</g>
<rect x="84" y="84" width="120" height="120" rx="32" fill="white"/>
<rect opacity="0.45" x="89.5" y="89.5" width="109" height="109" rx="27.5" fill="#F2E6FF" stroke="#C1B5F7" stroke-dasharray="5 5"/>
<g opacity="0.4">
<path d="M179 172.333C175.326 172.333 172.333 175.327 172.333 179C172.333 182.673 175.326 185.667 179 185.667C182.673 185.667 185.666 182.673 185.666 179C185.666 175.327 182.673 172.333 179 172.333ZM181.666 179.5H179.5V181.667C179.5 181.94 179.273 182.167 179 182.167C178.726 182.167 178.5 181.94 178.5 181.667V179.5H176.333C176.06 179.5 175.833 179.273 175.833 179C175.833 178.727 176.06 178.5 176.333 178.5H178.5V176.333C178.5 176.06 178.726 175.833 179 175.833C179.273 175.833 179.5 176.06 179.5 176.333V178.5H181.666C181.94 178.5 182.166 178.727 182.166 179C182.166 179.273 181.94 179.5 181.666 179.5Z" fill="#856BFA"/>
</g>
<path d="M132 146C126.48 146 122 150.46 122 156C122 161.54 126.48 166 132 166C137.52 166 142 161.52 142 156C142 150.48 137.54 146 132 146ZM127.92 151.92H132C132.76 151.92 133.36 152.54 133.36 153.28C133.36 154.02 132.74 154.64 132 154.64H127.92C127.16 154.64 126.56 154.02 126.56 153.28C126.56 152.54 127.16 151.92 127.92 151.92ZM136.08 160.08H127.9C127.14 160.08 126.54 159.46 126.54 158.72C126.54 157.98 127.16 157.36 127.9 157.36H136.08C136.84 157.36 137.44 157.98 137.44 158.72C137.44 159.46 136.84 160.08 136.08 160.08Z" fill="#AAC7FF"/>
<path d="M154 126H134C128 126 124 129 124 136V142.28C124 143.74 125.5 144.66 126.84 144.08C129.04 143.12 131.54 142.76 134.16 143.18C139.4 144.04 143.68 148.18 144.74 153.38C145.04 154.9 145.08 156.38 144.88 157.8C144.72 158.98 145.68 160.02 146.86 160.02H154C160 160.02 164 157.02 164 150.02V136.02C164 129 160 126 154 126Z" fill="#6247DB"/>
<path d="M144 143.74C142.32 143.74 140.62 143.22 139.32 142.16L133.06 137.16C132.42 136.64 132.3 135.7 132.82 135.06C133.34 134.42 134.28 134.3 134.92 134.82L141.18 139.82C142.7 141.04 145.28 141.04 146.8 139.82L153.06 134.82C153.7 134.3 154.66 134.4 155.16 135.06C155.68 135.7 155.58 136.66 154.92 137.16L148.66 142.16C147.38 143.22 145.68 143.74 144 143.74Z" fill="#AAC7FF"/>
<defs>
<filter id="filter0_f_1_1908" x="0" y="0" width="288" height="288" filterUnits="userSpaceOnUse" color-interpolation-filters="sRGB">
<feFlood flood-opacity="0" result="BackgroundImageFix"/>
<feBlend mode="normal" in="SourceGraphic" in2="BackgroundImageFix" result="shape"/>
<feGaussianBlur stdDeviation="50" result="effect1_foregroundBlur_1_1908"/>
</filter>
</defs>
</svg>
