<svg width="288" height="288" viewBox="0 0 288 288" fill="none" xmlns="http://www.w3.org/2000/svg">
<g opacity="0.4" filter="url(#filter0_f_1_1914)">
<rect x="100" y="100" width="88" height="88" rx="12" fill="#6247DB"/>
</g>
<rect x="84" y="84" width="120" height="120" rx="32" fill="white"/>
<rect opacity="0.45" x="89.5" y="89.5" width="109" height="109" rx="27.5" fill="#F2E6FF" stroke="#C1B5F7" stroke-dasharray="5 5"/>
<g opacity="0.4">
<path d="M179 172.333C175.326 172.333 172.333 175.327 172.333 179C172.333 182.673 175.326 185.667 179 185.667C182.673 185.667 185.666 182.673 185.666 179C185.666 175.327 182.673 172.333 179 172.333ZM181.666 179.5H179.5V181.667C179.5 181.94 179.273 182.167 179 182.167C178.726 182.167 178.5 181.94 178.5 181.667V179.5H176.333C176.06 179.5 175.833 179.273 175.833 179C175.833 178.727 176.06 178.5 176.333 178.5H178.5V176.333C178.5 176.06 178.726 175.833 179 175.833C179.273 175.833 179.5 176.06 179.5 176.333V178.5H181.666C181.94 178.5 182.166 178.727 182.166 179C182.166 179.273 181.94 179.5 181.666 179.5Z" fill="#856BFA"/>
</g>
<path d="M131.48 152C131.7 151.02 131.3 149.62 130.6 148.92L125.74 144.06C124.22 142.54 123.62 140.92 124.06 139.52C124.52 138.12 125.94 137.16 128.06 136.8L134.3 135.76C135.2 135.6 136.3 134.8 136.72 133.98L140.16 127.08C141.16 125.1 142.52 124 144 124C145.48 124 146.84 125.1 147.84 127.08L151.28 133.98C151.54 134.5 152.08 135 152.66 135.34L131.12 156.88C130.84 157.16 130.36 156.9 130.44 156.5L131.48 152Z" fill="#AAC7FF"/>
<path d="M157.4 148.92C156.68 149.64 156.28 151.02 156.52 152L157.9 158.02C158.48 160.52 158.12 162.4 156.88 163.3C156.38 163.66 155.78 163.84 155.08 163.84C154.06 163.84 152.86 163.46 151.54 162.68L145.68 159.2C144.76 158.66 143.24 158.66 142.32 159.2L136.46 162.68C134.24 163.98 132.34 164.2 131.12 163.3C130.66 162.96 130.32 162.5 130.1 161.9L154.42 137.58C155.34 136.66 156.64 136.24 157.9 136.46L159.92 136.8C162.04 137.16 163.46 138.12 163.92 139.52C164.36 140.92 163.76 142.54 162.24 144.06L157.4 148.92Z" fill="#6247DB"/>
<defs>
<filter id="filter0_f_1_1914" x="0" y="0" width="288" height="288" filterUnits="userSpaceOnUse" color-interpolation-filters="sRGB">
<feFlood flood-opacity="0" result="BackgroundImageFix"/>
<feBlend mode="normal" in="SourceGraphic" in2="BackgroundImageFix" result="shape"/>
<feGaussianBlur stdDeviation="50" result="effect1_foregroundBlur_1_1914"/>
</filter>
</defs>
</svg>
