<svg width="288" height="288" viewBox="0 0 288 288" fill="none" xmlns="http://www.w3.org/2000/svg">
<g opacity="0.4" filter="url(#filter0_f_1_1926)">
<rect x="100" y="100" width="88" height="88" rx="12" fill="#6247DB"/>
</g>
<rect x="84" y="84" width="120" height="120" rx="32" fill="white"/>
<rect opacity="0.45" x="89.5" y="89.5" width="109" height="109" rx="27.5" fill="#F2E6FF" stroke="#C1B5F7" stroke-dasharray="5 5"/>
<g opacity="0.4">
<path d="M179 172.333C175.326 172.333 172.333 175.327 172.333 179C172.333 182.673 175.326 185.667 179 185.667C182.673 185.667 185.666 182.673 185.666 179C185.666 175.327 182.673 172.333 179 172.333ZM181.666 179.5H179.5V181.667C179.5 181.94 179.273 182.167 179 182.167C178.726 182.167 178.5 181.94 178.5 181.667V179.5H176.333C176.06 179.5 175.833 179.273 175.833 179C175.833 178.727 176.06 178.5 176.333 178.5H178.5V176.333C178.5 176.06 178.726 175.833 179 175.833C179.273 175.833 179.5 176.06 179.5 176.333V178.5H181.666C181.94 178.5 182.166 178.727 182.166 179C182.166 179.273 181.94 179.5 181.666 179.5Z" fill="#856BFA"/>
</g>
<path d="M155.24 141.5C154.38 141.5 153.7 140.8 153.7 139.96C153.7 139.22 152.96 137.68 151.72 136.34C150.5 135.04 149.16 134.28 148.04 134.28C147.18 134.28 146.5 133.58 146.5 132.74C146.5 131.9 147.2 131.2 148.04 131.2C150.04 131.2 152.14 132.28 153.98 134.22C155.7 136.04 156.8 138.3 156.8 139.94C156.8 140.8 156.1 141.5 155.24 141.5Z" fill="#AAC7FF"/>
<path d="M162.46 141.5C161.6 141.5 160.92 140.8 160.92 139.96C160.92 132.86 155.14 127.1 148.06 127.1C147.2 127.1 146.52 126.4 146.52 125.56C146.52 124.72 147.2 124 148.04 124C156.84 124 164 131.16 164 139.96C164 140.8 163.3 141.5 162.46 141.5Z" fill="#AAC7FF"/>
<path d="M143.58 148.42L137.04 154.96C136.32 154.32 135.62 153.66 134.94 152.98C132.88 150.9 131.02 148.72 129.36 146.44C127.72 144.16 126.4 141.88 125.44 139.62C124.48 137.34 124 135.16 124 133.08C124 131.72 124.24 130.42 124.72 129.22C125.2 128 125.96 126.88 127.02 125.88C128.3 124.62 129.7 124 131.18 124C131.74 124 132.3 124.12 132.8 124.36C133.32 124.6 133.78 124.96 134.14 125.48L138.78 132.02C139.14 132.52 139.4 132.98 139.58 133.42C139.76 133.84 139.86 134.26 139.86 134.64C139.86 135.12 139.72 135.6 139.44 136.06C139.18 136.52 138.8 137 138.32 137.48L136.8 139.06C136.58 139.28 136.48 139.54 136.48 139.86C136.48 140.02 136.5 140.16 136.54 140.32C136.6 140.48 136.66 140.6 136.7 140.72C137.06 141.38 137.68 142.24 138.56 143.28C139.46 144.32 140.42 145.38 141.46 146.44C142.18 147.14 142.88 147.82 143.58 148.42Z" fill="#6247DB"/>
<path d="M163.94 156.66C163.94 157.22 163.84 157.8 163.64 158.36C163.58 158.52 163.52 158.68 163.44 158.84C163.1 159.56 162.66 160.24 162.08 160.88C161.1 161.96 160.02 162.74 158.8 163.24C158.78 163.24 158.76 163.26 158.74 163.26C157.56 163.74 156.28 164 154.9 164C152.86 164 150.68 163.52 148.38 162.54C146.08 161.56 143.78 160.24 141.5 158.58C140.72 158 139.94 157.42 139.2 156.8L145.74 150.26C146.3 150.68 146.8 151 147.22 151.22C147.32 151.26 147.44 151.32 147.58 151.38C147.74 151.44 147.9 151.46 148.08 151.46C148.42 151.46 148.68 151.34 148.9 151.12L150.42 149.62C150.92 149.12 151.4 148.74 151.86 148.5C152.32 148.22 152.78 148.08 153.28 148.08C153.66 148.08 154.06 148.16 154.5 148.34C154.94 148.52 155.4 148.78 155.9 149.12L162.52 153.82C163.04 154.18 163.4 154.6 163.62 155.1C163.82 155.6 163.94 156.1 163.94 156.66Z" fill="#AAC7FF"/>
<defs>
<filter id="filter0_f_1_1926" x="0" y="0" width="288" height="288" filterUnits="userSpaceOnUse" color-interpolation-filters="sRGB">
<feFlood flood-opacity="0" result="BackgroundImageFix"/>
<feBlend mode="normal" in="SourceGraphic" in2="BackgroundImageFix" result="shape"/>
<feGaussianBlur stdDeviation="50" result="effect1_foregroundBlur_1_1926"/>
</filter>
</defs>
</svg>
