<svg width="48" height="48" viewBox="0 0 48 48" fill="none" xmlns="http://www.w3.org/2000/svg">
<circle cx="24" cy="24" r="24" fill="#856BFA"/>
<path d="M21.0833 32.1836C20.8553 32.1836 20.6273 32.0996 20.4473 31.9196L13.1633 24.6356C12.8153 24.2876 12.8153 23.7116 13.1633 23.3636L20.4473 16.0796C20.7953 15.7316 21.3713 15.7316 21.7193 16.0796C22.0673 16.4276 22.0673 17.0036 21.7193 17.3516L15.0713 23.9996L21.7193 30.6476C22.0673 30.9956 22.0673 31.5716 21.7193 31.9196C21.5513 32.0996 21.3113 32.1836 21.0833 32.1836Z" fill="white"/>
<path d="M34.1995 24.8996H14.0035C13.5115 24.8996 13.1035 24.4916 13.1035 23.9996C13.1035 23.5076 13.5115 23.0996 14.0035 23.0996H34.1995C34.6915 23.0996 35.0995 23.5076 35.0995 23.9996C35.0995 24.4916 34.6915 24.8996 34.1995 24.8996Z" fill="white"/>
</svg>
