<svg width="48" height="48" viewBox="0 0 48 48" fill="none" xmlns="http://www.w3.org/2000/svg">
<rect width="48" height="48" rx="12" fill="#856BFA"/>
<path d="M30.667 36.3334H17.3337C16.787 36.3334 16.3337 35.8801 16.3337 35.3334C16.3337 34.7867 16.787 34.3334 17.3337 34.3334H30.667C34.4803 34.3334 36.3337 32.4801 36.3337 28.6667V19.3334C36.3337 15.5201 34.4803 13.6667 30.667 13.6667H17.3337C13.5203 13.6667 11.667 15.5201 11.667 19.3334C11.667 19.8801 11.2137 20.3334 10.667 20.3334C10.1203 20.3334 9.66699 19.8801 9.66699 19.3334C9.66699 14.4667 12.467 11.6667 17.3337 11.6667H30.667C35.5337 11.6667 38.3337 14.4667 38.3337 19.3334V28.6667C38.3337 33.5334 35.5337 36.3334 30.667 36.3334Z" fill="white"/>
<path d="M23.9994 25.16C22.8794 25.16 21.746 24.8133 20.8794 24.1066L16.706 20.7733C16.2794 20.4266 16.1994 19.8 16.546 19.3733C16.8927 18.9466 17.5194 18.8666 17.946 19.2133L22.1194 22.5466C23.1327 23.36 24.8527 23.36 25.866 22.5466L30.0394 19.2133C30.466 18.8666 31.106 18.9333 31.4394 19.3733C31.786 19.8 31.7194 20.44 31.2794 20.7733L27.106 24.1066C26.2527 24.8133 25.1194 25.16 23.9994 25.16Z" fill="white"/>
<path d="M18.667 31H10.667C10.1203 31 9.66699 30.5467 9.66699 30C9.66699 29.4533 10.1203 29 10.667 29H18.667C19.2137 29 19.667 29.4533 19.667 30C19.667 30.5467 19.2137 31 18.667 31Z" fill="white"/>
<path d="M14.667 25.6667H10.667C10.1203 25.6667 9.66699 25.2134 9.66699 24.6667C9.66699 24.1201 10.1203 23.6667 10.667 23.6667H14.667C15.2137 23.6667 15.667 24.1201 15.667 24.6667C15.667 25.2134 15.2137 25.6667 14.667 25.6667Z" fill="white"/>
</svg>
