<svg width="288" height="288" viewBox="0 0 288 288" fill="none" xmlns="http://www.w3.org/2000/svg">
<g opacity="0.4" filter="url(#filter0_f_1_1932)">
<rect x="100" y="100" width="88" height="88" rx="12" fill="#6247DB"/>
</g>
<rect x="84" y="84" width="120" height="120" rx="32" fill="white"/>
<rect opacity="0.45" x="89.5" y="89.5" width="109" height="109" rx="27.5" fill="#F2E6FF" stroke="#C1B5F7" stroke-dasharray="5 5"/>
<g opacity="0.4">
<path d="M179 172.333C175.326 172.333 172.333 175.327 172.333 179C172.333 182.673 175.326 185.667 179 185.667C182.673 185.667 185.666 182.673 185.666 179C185.666 175.327 182.673 172.333 179 172.333ZM181.666 179.5H179.5V181.667C179.5 181.94 179.273 182.167 179 182.167C178.726 182.167 178.5 181.94 178.5 181.667V179.5H176.333C176.06 179.5 175.833 179.273 175.833 179C175.833 178.727 176.06 178.5 176.333 178.5H178.5V176.333C178.5 176.06 178.726 175.833 179 175.833C179.273 175.833 179.5 176.06 179.5 176.333V178.5H181.666C181.94 178.5 182.166 178.727 182.166 179C182.166 179.273 181.94 179.5 181.666 179.5Z" fill="#856BFA"/>
</g>
<path d="M155.96 141.58V149.58C155.96 150.1 155.94 150.6 155.88 151.08C155.42 156.48 152.24 159.16 146.38 159.16H145.58C145.08 159.16 144.6 159.4 144.3 159.8L141.9 163C140.84 164.42 139.12 164.42 138.06 163L135.66 159.8C135.4 159.46 134.82 159.16 134.38 159.16H133.58C127.2 159.16 124 157.58 124 149.58V141.58C124 135.72 126.7 132.54 132.08 132.08C132.56 132.02 133.06 132 133.58 132H146.38C152.76 132 155.96 135.2 155.96 141.58Z" fill="#6247DB"/>
<path d="M139.98 148C138.86 148 137.98 147.1 137.98 146C137.98 144.9 138.88 144 139.98 144C141.08 144 141.98 144.9 141.98 146C141.98 147.1 141.1 148 139.98 148Z" fill="#AAC7FF"/>
<path d="M146.98 148C145.86 148 144.98 147.1 144.98 146C144.98 144.9 145.88 144 146.98 144C148.08 144 148.98 144.9 148.98 146C148.98 147.1 148.08 148 146.98 148Z" fill="#AAC7FF"/>
<path d="M133 148C131.88 148 131 147.1 131 146C131 144.9 131.9 144 133 144C134.1 144 135 144.9 135 146C135 147.1 134.1 148 133 148Z" fill="#AAC7FF"/>
<path d="M163.96 133.58V141.58C163.96 147.46 161.26 150.62 155.88 151.08C155.94 150.6 155.96 150.1 155.96 149.58V141.58C155.96 135.2 152.76 132 146.38 132H133.58C133.06 132 132.56 132.02 132.08 132.08C132.54 126.7 135.72 124 141.58 124H154.38C160.76 124 163.96 127.2 163.96 133.58Z" fill="#AAC7FF"/>
<defs>
<filter id="filter0_f_1_1932" x="0" y="0" width="288" height="288" filterUnits="userSpaceOnUse" color-interpolation-filters="sRGB">
<feFlood flood-opacity="0" result="BackgroundImageFix"/>
<feBlend mode="normal" in="SourceGraphic" in2="BackgroundImageFix" result="shape"/>
<feGaussianBlur stdDeviation="50" result="effect1_foregroundBlur_1_1932"/>
</filter>
</defs>
</svg>
