<svg width="48" height="48" viewBox="0 0 48 48" fill="none" xmlns="http://www.w3.org/2000/svg">
<rect width="48" height="48" rx="12" fill="#856BFA"/>
<path d="M31.4932 20.8267H24.4932C23.9465 20.8267 23.4932 20.3733 23.4932 19.8267C23.4932 19.28 23.9465 18.8267 24.4932 18.8267H31.4932C32.0398 18.8267 32.4932 19.28 32.4932 19.8267C32.4932 20.3733 32.0532 20.8267 31.4932 20.8267Z" fill="white"/>
<path d="M17.4937 21.8399C17.2404 21.8399 16.9871 21.7466 16.7871 21.5466L15.7871 20.5466C15.4004 20.1599 15.4004 19.5199 15.7871 19.1333C16.1737 18.7466 16.8137 18.7466 17.2004 19.1333L17.4937 19.4266L19.7871 17.1333C20.1737 16.7466 20.8137 16.7466 21.2004 17.1333C21.5871 17.5199 21.5871 18.1599 21.2004 18.5466L18.2004 21.5466C18.0137 21.7333 17.7604 21.8399 17.4937 21.8399Z" fill="white"/>
<path d="M31.4932 30.1599H24.4932C23.9465 30.1599 23.4932 29.7066 23.4932 29.1599C23.4932 28.6132 23.9465 28.1599 24.4932 28.1599H31.4932C32.0398 28.1599 32.4932 28.6132 32.4932 29.1599C32.4932 29.7066 32.0532 30.1599 31.4932 30.1599Z" fill="white"/>
<path d="M17.4937 31.1734C17.2404 31.1734 16.9871 31.0801 16.7871 30.8801L15.7871 29.8801C15.4004 29.4934 15.4004 28.8534 15.7871 28.4668C16.1737 28.0801 16.8137 28.0801 17.2004 28.4668L17.4937 28.7601L19.7871 26.4668C20.1737 26.0801 20.8137 26.0801 21.2004 26.4668C21.5871 26.8534 21.5871 27.4934 21.2004 27.8801L18.2004 30.8801C18.0137 31.0668 17.7604 31.1734 17.4937 31.1734Z" fill="white"/>
<path d="M28.0003 38.3334H20.0003C12.7603 38.3334 9.66699 35.2401 9.66699 28.0001V20.0001C9.66699 12.7601 12.7603 9.66675 20.0003 9.66675H28.0003C35.2403 9.66675 38.3337 12.7601 38.3337 20.0001V28.0001C38.3337 35.2401 35.2403 38.3334 28.0003 38.3334ZM20.0003 11.6667C13.8537 11.6667 11.667 13.8534 11.667 20.0001V28.0001C11.667 34.1467 13.8537 36.3334 20.0003 36.3334H28.0003C34.147 36.3334 36.3337 34.1467 36.3337 28.0001V20.0001C36.3337 13.8534 34.147 11.6667 28.0003 11.6667H20.0003Z" fill="white"/>
</svg>
