<svg width="96" height="96" viewBox="0 0 96 96" fill="none" xmlns="http://www.w3.org/2000/svg">
<rect width="96" height="96" rx="16" fill="#EFEBFE"/>
<path d="M68 42.5H28C27.18 42.5 26.5 41.82 26.5 41C26.5 40.18 27.18 39.5 28 39.5H68C68.82 39.5 69.5 40.18 69.5 41C69.5 41.82 68.82 42.5 68 42.5Z" fill="#856BFA"/>
<path d="M40 58.5H36C35.18 58.5 34.5 57.82 34.5 57C34.5 56.18 35.18 55.5 36 55.5H40C40.82 55.5 41.5 56.18 41.5 57C41.5 57.82 40.82 58.5 40 58.5Z" fill="#856BFA"/>
<path d="M53 58.5H45C44.18 58.5 43.5 57.82 43.5 57C43.5 56.18 44.18 55.5 45 55.5H53C53.82 55.5 54.5 56.18 54.5 57C54.5 57.82 53.82 58.5 53 58.5Z" fill="#856BFA"/>
<path d="M59.12 66.5H36.88C28.92 66.5 26.5 64.1 26.5 56.22V39.78C26.5 31.9 28.92 29.5 36.88 29.5H59.1C67.06 29.5 69.48 31.9 69.48 39.78V56.2C69.5 64.1 67.08 66.5 59.12 66.5ZM36.88 32.5C30.6 32.5 29.5 33.58 29.5 39.78V56.2C29.5 62.4 30.6 63.48 36.88 63.48H59.1C65.38 63.48 66.48 62.4 66.48 56.2V39.78C66.48 33.58 65.38 32.5 59.1 32.5H36.88Z" fill="#856BFA"/>
</svg>
